<?xml version="1.0" encoding="UTF-8"?>
<svg version="1.1" xmlns="http://www.w3.org/2000/svg" width="600" height="600">
<path d="M0 0 C1.92338951 -0.01441132 1.92338951 -0.01441132 3.88563538 -0.02911377 C5.2797935 -0.03396458 6.67395371 -0.03824271 8.06811523 -0.04199219 C8.77670118 -0.04481956 9.48528713 -0.04764694 10.21534538 -0.05056 C13.97039025 -0.06552508 17.72539702 -0.07476956 21.48046875 -0.07910156 C25.32770221 -0.08456078 29.17457721 -0.10854195 33.02169895 -0.13707352 C36.00659644 -0.15586024 38.99141066 -0.16091408 41.97636223 -0.16243744 C43.39270916 -0.16543203 44.80905579 -0.17335009 46.2253437 -0.18662262 C64.3506417 -0.34426169 80.1143471 4.07446154 93.32983398 16.92285156 C94.06717773 17.66148438 94.80452148 18.40011719 95.56420898 19.16113281 C96.60834961 20.09892578 96.60834961 20.09892578 97.67358398 21.05566406 C108.80489869 31.30251384 114.21300103 45.36493748 119.56420898 59.16113281 C119.95366699 60.1648291 120.343125 61.16852539 120.74438477 62.20263672 C148.35929466 133.97509209 148.35929466 133.97509209 140.59155273 153.12597656 C136.84443097 160.54898203 131.90552931 165.96798736 125.97436523 171.74707031 C121.77563632 175.9526043 118.42388129 179.88300119 116.31420898 185.47363281 C116.83675275 193.18115338 122.14050059 199.52841692 126.25170898 205.84863281 C131.78579162 214.42462842 133.55289963 222.17348666 133.62670898 232.34863281 C133.91482373 239.94865658 136.22243349 245.87591602 139.33666992 252.73999023 C145.64977466 266.76989406 148.9675929 281.45081575 151.02124023 296.64550781 C151.18095268 299.9748406 151.18095268 299.9748406 152.56420898 301.16113281 C160.58805602 290.37164432 160.58805602 290.37164432 164.03295898 277.59472656 C165.3915772 271.37105635 171.39569717 266.79614978 176.48608398 263.36816406 C180.09599436 261.2714304 183.87895592 259.52184168 187.64233398 257.71972656 C190.33782074 256.28189338 192.43459506 254.75567964 194.75170898 252.78613281 C198.26385904 250.01876302 200.98283086 249.29008663 205.44311523 249.66113281 C208.21978884 250.31567097 210.46688346 251.34114812 212.54077148 253.32910156 C214.72153517 257.23283504 214.09071583 261.85577302 213.56420898 266.16113281 C213.23420898 267.15113281 212.90420898 268.14113281 212.56420898 269.16113281 C221.46091241 268.02538344 228.97353761 266.32734989 236.87670898 261.97363281 C243.02071363 258.61051992 248.42164422 256.49179775 255.56420898 258.16113281 C256.22420898 258.82113281 256.88420898 259.48113281 257.56420898 260.16113281 C261.15111242 260.26336178 264.69453269 260.09045725 268.27905273 259.93847656 C271.56420898 260.16113281 271.56420898 260.16113281 273.48999023 261.41503906 C274.78192999 263.51502841 274.90701906 264.71094676 274.81420898 267.16113281 C274.79874023 267.84175781 274.78327148 268.52238281 274.76733398 269.22363281 C274.56420898 271.16113281 274.56420898 271.16113281 273.56420898 274.16113281 C273.89420898 274.82113281 274.22420898 275.48113281 274.56420898 276.16113281 C275.1946848 281.16891213 275.24447436 284.98200616 272.68920898 289.41113281 C260.81311254 301.15453544 243.36645798 302.93287738 227.64819336 305.13964844 C215.65754442 306.96685353 202.91138369 310.16160559 195.25170898 320.22363281 C185.81499627 334.624877 180.40918206 350.81750394 174.71127319 366.93869019 C153.1234403 428.01134489 153.1234403 428.01134489 135.56420898 443.16113281 C127.53395936 446.49256764 116.31977377 448.03997742 107.8453064 445.68307495 C104.60098655 444.9407361 101.34854344 444.78518456 98.03540039 444.60693359 C97.25499201 444.56482317 96.47458363 444.52271275 95.6705265 444.47932625 C83.79764978 443.90969817 71.90840417 444.01752809 60.02514648 444.02832031 C57.36984196 444.02764436 54.7145388 444.02667256 52.05923462 444.02542114 C46.51043186 444.0236135 40.96164251 444.02596476 35.4128418 444.03076172 C29.78880949 444.03556911 24.16480374 444.03560606 18.54077148 444.03076172 C-23.00635608 443.94336774 -23.00635608 443.94336774 -64.53443909 445.04907227 C-69.22940957 445.23040875 -73.92575018 445.32469612 -78.62329102 445.41113281 C-79.36344452 445.43281525 -80.10359802 445.45449768 -80.86618042 445.47683716 C-85.24944564 445.5033937 -87.91452604 444.78716093 -91.43579102 442.16113281 C-91.76579102 441.83113281 -92.09579102 441.50113281 -92.43579102 441.16113281 C-94.17355586 440.94761183 -95.91232542 440.74015168 -97.65454102 440.56665039 C-109.28517214 439.39068191 -119.34394123 437.25008257 -127.43579102 428.16113281 C-137.25761322 414.84442908 -136.7813083 397.66991562 -136.68579102 381.91113281 C-136.68435089 381.08384674 -136.68291077 380.25656067 -136.681427 379.40420532 C-136.65379739 365.84558558 -136.00597634 352.45131453 -134.50585938 338.96655273 C-134.48273682 338.37076416 -134.45961426 337.77497559 -134.43579102 337.16113281 C-134.76579102 336.83113281 -135.09579102 336.50113281 -135.43579102 336.16113281 C-136.50222286 322.82427152 -137.60504294 303.49963665 -131.43579102 291.16113281 C-133.32297852 291.02964844 -133.32297852 291.02964844 -135.24829102 290.89550781 C-140.97274461 290.25497818 -146.06708539 288.42810509 -151.43579102 286.41113281 C-152.83571289 285.90839844 -152.83571289 285.90839844 -154.26391602 285.39550781 C-167.85921318 280.38271668 -181.22203079 272.24235261 -188.43579102 259.16113281 C-189.50239987 255.74877163 -190.27853161 252.39820111 -190.92797852 248.88378906 C-191.29768775 246.20764153 -191.29768775 246.20764153 -192.43579102 244.16113281 C-192.60875392 242.37479467 -192.70259651 240.58024322 -192.74829102 238.78613281 C-192.78567383 237.82964844 -192.82305664 236.87316406 -192.86157227 235.88769531 C-192.43579102 233.16113281 -192.43579102 233.16113281 -190.85766602 230.83691406 C-187.58066133 228.56943824 -185.32781578 228.6612586 -181.37329102 228.72363281 C-179.53057617 228.72556641 -179.53057617 228.72556641 -177.65063477 228.72753906 C-174.43579102 229.16113281 -174.43579102 229.16113281 -172.50219727 230.56347656 C-171.43579102 232.16113281 -171.43579102 232.16113281 -171.43579102 234.16113281 C-170.85547119 233.83814209 -170.27515137 233.51515137 -169.67724609 233.18237305 C-160.8907907 229.17913343 -149.20646447 234.28149573 -140.53540039 236.58496094 C-132.07370445 238.74833602 -124.15879598 239.8402308 -115.43579102 240.16113281 C-115.06703857 239.41951904 -114.69828613 238.67790527 -114.31835938 237.91381836 C-111.04594641 231.39985855 -107.37823713 226.66615962 -101.99829102 221.74316406 C-100.01974295 219.13135297 -100.01974295 219.13135297 -101.16235352 215.56738281 C-101.38052734 214.87813721 -101.59870117 214.1888916 -101.82348633 213.47875977 C-104.75216359 202.39345944 -103.84983635 187.23024517 -98.43579102 177.16113281 C-98.01168945 176.2575 -97.58758789 175.35386719 -97.15063477 174.42285156 C-93.14845339 166.36274812 -87.60271912 160.04209527 -81.04516602 153.93457031 C-80.30782227 153.24621094 -79.57047852 152.55785156 -78.81079102 151.84863281 C-78.13790039 151.254375 -77.46500977 150.66011719 -76.77172852 150.04785156 C-75.18326142 148.22696811 -75.18326142 148.22696811 -75.59985352 145.82519531 C-75.87571289 144.94605469 -76.15157227 144.06691406 -76.43579102 143.16113281 C-76.74516602 142.154375 -77.05454102 141.14761719 -77.37329102 140.11035156 C-78.07932398 137.9429342 -78.78764308 135.77626016 -79.49829102 133.61035156 C-86.97656438 106.09653749 -78.86603068 76.34393196 -65.43579102 52.16113281 C-63.60529785 49.00916063 -61.61664284 46.08042205 -59.43579102 43.16113281 C-58.28530273 41.59685547 -58.28530273 41.59685547 -57.11157227 40.00097656 C-43.39603824 21.74014848 -24.52113646 0.14880249 0 0 Z " fill="#000000" transform="translate(287.435791015625,77.8388671875)"/>
<path d="M0 0 C1.92338951 -0.01441132 1.92338951 -0.01441132 3.88563538 -0.02911377 C5.2797935 -0.03396458 6.67395371 -0.03824271 8.06811523 -0.04199219 C8.77670118 -0.04481956 9.48528713 -0.04764694 10.21534538 -0.05056 C13.97039025 -0.06552508 17.72539702 -0.07476956 21.48046875 -0.07910156 C25.32770221 -0.08456078 29.17457721 -0.10854195 33.02169895 -0.13707352 C36.00659644 -0.15586024 38.99141066 -0.16091408 41.97636223 -0.16243744 C43.39270916 -0.16543203 44.80905579 -0.17335009 46.2253437 -0.18662262 C64.3506417 -0.34426169 80.1143471 4.07446154 93.32983398 16.92285156 C94.06717773 17.66148438 94.80452148 18.40011719 95.56420898 19.16113281 C96.60834961 20.09892578 96.60834961 20.09892578 97.67358398 21.05566406 C108.80489869 31.30251384 114.21300103 45.36493748 119.56420898 59.16113281 C119.95366699 60.1648291 120.343125 61.16852539 120.74438477 62.20263672 C148.35929466 133.97509209 148.35929466 133.97509209 140.59155273 153.12597656 C136.84443097 160.54898203 131.90552931 165.96798736 125.97436523 171.74707031 C121.77563632 175.9526043 118.42388129 179.88300119 116.31420898 185.47363281 C116.83675275 193.18115338 122.14050059 199.52841692 126.25170898 205.84863281 C131.78579162 214.42462842 133.55289963 222.17348666 133.62670898 232.34863281 C133.91482373 239.94865658 136.22243349 245.87591602 139.33666992 252.73999023 C145.64977466 266.76989406 148.9675929 281.45081575 151.02124023 296.64550781 C151.18095268 299.9748406 151.18095268 299.9748406 152.56420898 301.16113281 C160.58805602 290.37164432 160.58805602 290.37164432 164.03295898 277.59472656 C165.3915772 271.37105635 171.39569717 266.79614978 176.48608398 263.36816406 C180.09599436 261.2714304 183.87895592 259.52184168 187.64233398 257.71972656 C190.33782074 256.28189338 192.43459506 254.75567964 194.75170898 252.78613281 C198.26385904 250.01876302 200.98283086 249.29008663 205.44311523 249.66113281 C208.21978884 250.31567097 210.46688346 251.34114812 212.54077148 253.32910156 C214.72153517 257.23283504 214.09071583 261.85577302 213.56420898 266.16113281 C213.23420898 267.15113281 212.90420898 268.14113281 212.56420898 269.16113281 C221.46091241 268.02538344 228.97353761 266.32734989 236.87670898 261.97363281 C243.02071363 258.61051992 248.42164422 256.49179775 255.56420898 258.16113281 C256.22420898 258.82113281 256.88420898 259.48113281 257.56420898 260.16113281 C261.15111242 260.26336178 264.69453269 260.09045725 268.27905273 259.93847656 C271.56420898 260.16113281 271.56420898 260.16113281 273.48999023 261.41503906 C274.78192999 263.51502841 274.90701906 264.71094676 274.81420898 267.16113281 C274.79874023 267.84175781 274.78327148 268.52238281 274.76733398 269.22363281 C274.56420898 271.16113281 274.56420898 271.16113281 273.56420898 274.16113281 C273.89420898 274.82113281 274.22420898 275.48113281 274.56420898 276.16113281 C275.1946848 281.16891213 275.24447436 284.98200616 272.68920898 289.41113281 C260.81311254 301.15453544 243.36645798 302.93287738 227.64819336 305.13964844 C215.65754442 306.96685353 202.91138369 310.16160559 195.25170898 320.22363281 C185.81499627 334.624877 180.40918206 350.81750394 174.71127319 366.93869019 C153.1234403 428.01134489 153.1234403 428.01134489 135.56420898 443.16113281 C127.53395936 446.49256764 116.31977377 448.03997742 107.8453064 445.68307495 C104.60098655 444.9407361 101.34854344 444.78518456 98.03540039 444.60693359 C97.25499201 444.56482317 96.47458363 444.52271275 95.6705265 444.47932625 C83.79764978 443.90969817 71.90840417 444.01752809 60.02514648 444.02832031 C57.36984196 444.02764436 54.7145388 444.02667256 52.05923462 444.02542114 C46.51043186 444.0236135 40.96164251 444.02596476 35.4128418 444.03076172 C29.78880949 444.03556911 24.16480374 444.03560606 18.54077148 444.03076172 C-23.00635608 443.94336774 -23.00635608 443.94336774 -64.53443909 445.04907227 C-69.22940957 445.23040875 -73.92575018 445.32469612 -78.62329102 445.41113281 C-79.36344452 445.43281525 -80.10359802 445.45449768 -80.86618042 445.47683716 C-85.24944564 445.5033937 -87.91452604 444.78716093 -91.43579102 442.16113281 C-91.76579102 441.83113281 -92.09579102 441.50113281 -92.43579102 441.16113281 C-94.17355586 440.94761183 -95.91232542 440.74015168 -97.65454102 440.56665039 C-109.28517214 439.39068191 -119.34394123 437.25008257 -127.43579102 428.16113281 C-137.25761322 414.84442908 -136.7813083 397.66991562 -136.68579102 381.91113281 C-136.68435089 381.08384674 -136.68291077 380.25656067 -136.681427 379.40420532 C-136.65379739 365.84558558 -136.00597634 352.45131453 -134.50585938 338.96655273 C-134.48273682 338.37076416 -134.45961426 337.77497559 -134.43579102 337.16113281 C-134.76579102 336.83113281 -135.09579102 336.50113281 -135.43579102 336.16113281 C-136.50222286 322.82427152 -137.60504294 303.49963665 -131.43579102 291.16113281 C-133.32297852 291.02964844 -133.32297852 291.02964844 -135.24829102 290.89550781 C-140.97274461 290.25497818 -146.06708539 288.42810509 -151.43579102 286.41113281 C-152.83571289 285.90839844 -152.83571289 285.90839844 -154.26391602 285.39550781 C-167.85921318 280.38271668 -181.22203079 272.24235261 -188.43579102 259.16113281 C-189.50239987 255.74877163 -190.27853161 252.39820111 -190.92797852 248.88378906 C-191.29768775 246.20764153 -191.29768775 246.20764153 -192.43579102 244.16113281 C-192.60875392 242.37479467 -192.70259651 240.58024322 -192.74829102 238.78613281 C-192.78567383 237.82964844 -192.82305664 236.87316406 -192.86157227 235.88769531 C-192.43579102 233.16113281 -192.43579102 233.16113281 -190.85766602 230.83691406 C-187.58066133 228.56943824 -185.32781578 228.6612586 -181.37329102 228.72363281 C-179.53057617 228.72556641 -179.53057617 228.72556641 -177.65063477 228.72753906 C-174.43579102 229.16113281 -174.43579102 229.16113281 -172.50219727 230.56347656 C-171.43579102 232.16113281 -171.43579102 232.16113281 -171.43579102 234.16113281 C-170.85547119 233.83814209 -170.27515137 233.51515137 -169.67724609 233.18237305 C-160.8907907 229.17913343 -149.20646447 234.28149573 -140.53540039 236.58496094 C-132.07370445 238.74833602 -124.15879598 239.8402308 -115.43579102 240.16113281 C-115.06703857 239.41951904 -114.69828613 238.67790527 -114.31835938 237.91381836 C-111.04594641 231.39985855 -107.37823713 226.66615962 -101.99829102 221.74316406 C-100.01974295 219.13135297 -100.01974295 219.13135297 -101.16235352 215.56738281 C-101.38052734 214.87813721 -101.59870117 214.1888916 -101.82348633 213.47875977 C-104.75216359 202.39345944 -103.84983635 187.23024517 -98.43579102 177.16113281 C-98.01168945 176.2575 -97.58758789 175.35386719 -97.15063477 174.42285156 C-93.14845339 166.36274812 -87.60271912 160.04209527 -81.04516602 153.93457031 C-80.30782227 153.24621094 -79.57047852 152.55785156 -78.81079102 151.84863281 C-78.13790039 151.254375 -77.46500977 150.66011719 -76.77172852 150.04785156 C-75.18326142 148.22696811 -75.18326142 148.22696811 -75.59985352 145.82519531 C-75.87571289 144.94605469 -76.15157227 144.06691406 -76.43579102 143.16113281 C-76.74516602 142.154375 -77.05454102 141.14761719 -77.37329102 140.11035156 C-78.07932398 137.9429342 -78.78764308 135.77626016 -79.49829102 133.61035156 C-86.97656438 106.09653749 -78.86603068 76.34393196 -65.43579102 52.16113281 C-63.60529785 49.00916063 -61.61664284 46.08042205 -59.43579102 43.16113281 C-58.28530273 41.59685547 -58.28530273 41.59685547 -57.11157227 40.00097656 C-43.39603824 21.74014848 -24.52113646 0.14880249 0 0 Z M-36.02709961 25.78759766 C-37.19995183 26.93117939 -38.40233157 28.04438082 -39.61157227 29.14941406 C-59.70149034 47.90832307 -74.6039216 77.02430593 -75.77172852 104.66894531 C-75.80137288 106.54115174 -75.81400826 108.41369447 -75.81079102 110.28613281 C-75.80917969 111.27806641 -75.80756836 112.27 -75.8059082 113.29199219 C-75.64079539 123.34768654 -74.65243536 134.20039084 -69.17016602 142.87988281 C-67.43579102 146.16113281 -67.43579102 146.16113281 -67.87329102 148.29394531 C-69.91106922 150.72909027 -72.11515169 152.86712617 -74.43579102 155.03613281 C-86.4334074 166.66342781 -97.23966057 181.91950311 -97.68579102 199.16113281 C-97.50804279 206.92280527 -94.9614108 213.88734784 -92.43579102 221.16113281 C-93.40516602 221.88300781 -94.37454102 222.60488281 -95.37329102 223.34863281 C-102.69720547 229.61348835 -107.89285983 238.29259303 -111.43579102 247.16113281 C-143.70892439 243.91856031 -143.70892439 243.91856031 -157.63891602 238.83300781 C-161.06726611 238.00943768 -163.09470458 237.99821323 -166.43579102 239.16113281 C-168.3704895 242.11185125 -168.3704895 242.11185125 -169.43579102 245.16113281 C-170.3059082 244.09572266 -170.3059082 244.09572266 -171.19360352 243.00878906 C-172.36536133 241.63013672 -172.36536133 241.63013672 -173.56079102 240.22363281 C-174.32649414 239.30710937 -175.09219727 238.39058594 -175.88110352 237.44628906 C-178.82907153 234.8093452 -180.51240147 234.24264368 -184.43579102 234.16113281 C-186.7256691 236.03330629 -186.7256691 236.03330629 -186.74829102 239.03613281 C-186.72295487 242.15061103 -186.72295487 242.15061103 -184.93579102 244.03613281 C-183.43579102 246.16113281 -183.43579102 246.16113281 -183.62329102 249.84863281 C-183.8807124 256.77326801 -178.73757031 261.92428922 -174.31079102 266.78613281 C-162.92926399 277.45477801 -142.58411995 285.72726392 -126.93579102 286.28613281 C-125.69829102 286.22425781 -125.69829102 286.22425781 -124.43579102 286.16113281 C-124.61754883 286.78375 -124.79930664 287.40636719 -124.98657227 288.04785156 C-128.59284105 301.30782446 -132.33149347 317.42344492 -130.43579102 331.16113281 C-129.77579102 332.15113281 -129.11579102 333.14113281 -128.43579102 334.16113281 C-127.77579102 334.16113281 -127.11579102 334.16113281 -126.43579102 334.16113281 C-126.72454102 335.17175781 -127.01329102 336.18238281 -127.31079102 337.22363281 C-130.45564019 350.09246695 -130.80863582 363.03304626 -130.80639648 376.21264648 C-130.81077978 379.09125558 -130.84726907 381.96833879 -130.88500977 384.84667969 C-130.97980385 400.48342456 -130.02270725 415.94590563 -118.87329102 427.91113281 C-109.83581201 434.67777318 -99.17259835 434.68917252 -88.43579102 434.16113281 C-88.14704102 434.80050781 -87.85829102 435.43988281 -87.56079102 436.09863281 C-86.60755651 438.3131936 -86.60755651 438.3131936 -84.43579102 439.16113281 C-72.18842945 439.87703682 -59.68844525 439.28899464 -47.43263245 438.80075073 C-27.00289574 437.99761569 -6.57594298 438.00774095 13.86669922 438.03076172 C18.95154294 438.03642402 24.0363339 438.03308728 29.12117577 438.02732468 C49.43140428 438.00779548 69.73194926 438.11549219 90.03686523 438.60644531 C91.30057355 438.63556818 91.30057355 438.63556818 92.58981133 438.66527939 C94.96172979 438.72153497 97.33338834 438.78399421 99.70507812 438.84912109 C100.38758448 438.86544209 101.07009083 438.88176308 101.77327919 438.89857864 C105.21845165 439.00236624 108.58260039 439.27091786 111.99290466 439.74313354 C113.17143509 439.8810733 114.34996552 440.01901306 115.56420898 440.16113281 C117.14927557 438.57606623 116.7126419 436.94265506 116.73779297 434.7434082 C116.75802773 433.32911278 116.75802773 433.32911278 116.77867126 431.88624573 C116.78910965 430.85418503 116.79954803 429.82212433 116.81030273 428.75878906 C116.8433108 426.56542674 116.87652098 424.37206746 116.90991211 422.17871094 C116.95681628 418.72797351 117.00108872 415.27724139 117.04101562 411.82641602 C117.52597276 371.87698282 117.52597276 371.87698282 127.00170898 358.09863281 C127.73353983 356.98171417 128.46217499 355.86269568 129.18774414 354.74169922 C131.27993977 351.525568 133.42316089 348.34494967 135.56420898 345.16113281 C137.09039335 342.81532265 138.60214053 340.46085297 140.11157227 338.10424805 C141.41461625 336.07444195 142.7318322 334.05451109 144.05249023 332.03613281 C146.63605449 328.07219851 149.13433043 324.05780419 151.62670898 320.03613281 C154.96073525 314.66711177 158.37110908 309.35736159 161.87670898 304.09863281 C162.47140991 303.2060376 162.47140991 303.2060376 163.078125 302.29541016 C163.46154053 301.72387207 163.84495605 301.15233398 164.23999023 300.56347656 C164.61518799 300.0038623 164.99038574 299.44424805 165.37695312 298.86767578 C166.20704938 297.67450843 167.0685852 296.50288061 167.95263672 295.34912109 C171.29137402 290.96336619 172.09039057 288.33280359 171.93530273 282.78613281 C173.09359214 277.95153356 176.47002729 274.55160163 180.55419922 271.83984375 C182.69508603 270.6641821 184.85768929 269.58316325 187.06420898 268.53613281 C193.32824876 265.50052025 193.32824876 265.50052025 198.90795898 261.38769531 C201.56420898 259.16113281 201.56420898 259.16113281 204.56420898 259.16113281 C204.1254972 264.64503009 202.76199338 267.7254964 199.56420898 272.16113281 C199.56420898 272.82113281 199.56420898 273.48113281 199.56420898 274.16113281 C197.25420898 273.83113281 194.94420898 273.50113281 192.56420898 273.16113281 C198.59057068 278.6852977 206.58000354 278.51413603 214.29858398 278.32910156 C226.98504084 277.67656849 237.24060134 272.57583072 248.56420898 267.16113281 C241.92458525 273.90238344 237.05186154 277.71969807 227.56420898 279.16113281 C227.56420898 279.49113281 227.56420898 279.82113281 227.56420898 280.16113281 C238.17070352 280.5032778 246.86116998 278.41395416 256.56420898 274.16113281 C256.0447168 274.54785156 255.52522461 274.93457031 254.98999023 275.33300781 C254.29260742 275.85378906 253.59522461 276.37457031 252.87670898 276.91113281 C252.1406543 277.45769531 251.40459961 278.00425781 250.64624023 278.56738281 C248.44390341 280.20952887 248.44390341 280.20952887 246.06420898 282.41113281 C242.66841035 284.78819185 239.61426944 285.3373917 235.56420898 286.16113281 C235.56420898 286.49113281 235.56420898 286.82113281 235.56420898 287.16113281 C242.66148327 287.26921313 249.52515855 287.09967287 256.56420898 286.16113281 C248.1836877 289.29293096 240.1744718 291.0099955 231.31420898 292.09863281 C210.49948279 294.87199066 210.49948279 294.87199066 192.56420898 305.16113281 C191.85393555 305.77730469 191.14366211 306.39347656 190.41186523 307.02832031 C173.2811474 323.94829118 166.45839424 350.93117415 158.81420898 373.09863281 C143.95727037 416.10441587 143.95727037 416.10441587 130.87670898 432.24316406 C129.2818369 434.1864223 129.2818369 434.1864223 129.56420898 437.16113281 C130.88420898 437.16113281 132.20420898 437.16113281 133.56420898 437.16113281 C135.52948484 434.8388115 137.16297724 432.63185126 138.81420898 430.09863281 C139.54317383 428.99998901 139.54317383 428.99998901 140.28686523 427.87915039 C153.71799458 407.3315602 161.85944615 384.30058325 169.88061523 361.23547363 C186.29454532 314.15908645 186.29454532 314.15908645 205.56420898 304.16113281 C214.34760195 300.40944398 223.91550865 299.53421577 233.28491211 298.14355469 C243.36010434 296.56882813 253.42767392 294.59290647 262.18920898 289.09863281 C262.98584961 288.61265625 263.78249023 288.12667969 264.60327148 287.62597656 C266.81935245 286.14092848 266.81935245 286.14092848 268.56420898 283.16113281 C268.73134468 280.53581757 268.73134468 280.53581757 268.56420898 278.16113281 C267.47108398 278.32613281 266.37795898 278.49113281 265.25170898 278.66113281 C261.56420898 279.16113281 261.56420898 279.16113281 258.56420898 279.16113281 C259.29768555 278.48566406 260.03116211 277.81019531 260.78686523 277.11425781 C262.19258789 275.77621094 262.19258789 275.77621094 263.62670898 274.41113281 C264.56643555 273.52941406 265.50616211 272.64769531 266.47436523 271.73925781 C268.85469469 269.40995512 268.85469469 269.40995512 268.37280273 266.83300781 C268.1059668 266.28128906 267.83913086 265.72957031 267.56420898 265.16113281 C260.6242225 267.32276795 254.1330333 270.05475421 247.56420898 273.16113281 C247.92514648 272.690625 248.28608398 272.22011719 248.65795898 271.73535156 C249.35405273 270.80142578 249.35405273 270.80142578 250.06420898 269.84863281 C250.76030273 268.92630859 250.76030273 268.92630859 251.47045898 267.98535156 C252.82132181 266.08680277 252.82132181 266.08680277 252.56420898 263.16113281 C247.68865642 263.70613416 244.23056921 265.19808138 239.93920898 267.53613281 C227.48627973 273.97769795 215.36700505 274.74242875 201.56420898 275.16113281 C201.91427002 274.64019043 202.26433105 274.11924805 202.625 273.58251953 C206.10717584 268.34138173 206.10717584 268.34138173 207.50170898 262.28613281 C207.57260742 261.54621094 207.64350586 260.80628906 207.71655273 260.04394531 C207.74880729 257.91388062 207.74880729 257.91388062 205.56420898 256.16113281 C199.52432165 256.04033507 197.23480206 258.14481069 193.00561523 262.20019531 C190.04830704 264.57550526 186.86077001 266.08823211 183.43920898 267.66113281 C177.07452498 270.6245525 172.78392087 273.72170904 169.56420898 280.16113281 C169.44836334 281.5476045 169.3573671 282.9362202 169.28125 284.32543945 C168.75826952 289.35063244 166.99300219 292.48195791 164.09155273 296.53222656 C163.42779381 297.50483177 163.42779381 297.50483177 162.75062561 298.49708557 C161.35045788 300.5426389 159.92749006 302.57087138 158.50170898 304.59863281 C157.07707342 306.6542505 155.65742964 308.71313976 154.24208069 310.77516174 C153.36373542 312.0516667 152.47917891 313.32392445 151.58787537 314.59141541 C149.2985263 317.5920334 149.2985263 317.5920334 148.56420898 321.16113281 C147.90420898 321.16113281 147.24420898 321.16113281 146.56420898 321.16113281 C146.57726074 320.49903809 146.5903125 319.83694336 146.60375977 319.15478516 C146.85644951 296.29639089 141.90434853 274.86753313 132.75170898 254.03613281 C128.88006873 245.2087618 127.79571581 237.79345621 127.70874023 228.23535156 C127.62738912 222.90624643 126.15472528 218.78983309 123.56420898 214.16113281 C123.02151367 213.17757812 122.47881836 212.19402344 121.91967773 211.18066406 C118.93814791 205.95161938 115.78796257 200.83015738 112.50952148 195.78222656 C110.26245322 191.92878304 110.27361744 188.52000597 110.56420898 184.16113281 C113.23853768 174.89012667 120.95636967 167.87151803 127.37670898 160.97363281 C134.77315555 152.85432236 136.87063665 145.45414047 136.76977539 134.6484375 C136.45479638 129.30501681 135.23048911 124.41406842 133.75170898 119.28613281 C133.28909668 117.63278931 133.28909668 117.63278931 132.81713867 115.94604492 C117.12679207 57.25798397 117.12679207 57.25798397 79.02514648 13.66503906 C70.447606 9.19037785 61.59321599 6.03956922 51.85327148 6.02832031 C50.77303711 6.02703125 49.69280273 6.02574219 48.57983398 6.02441406 C47.46092773 6.02828125 46.34202148 6.03214844 45.18920898 6.03613281 C44.07803711 6.03226562 42.96686523 6.02839844 41.82202148 6.02441406 C37.35187083 6.02973567 33.13136342 6.06794922 28.71264648 6.79394531 C24.85697942 7.24361368 22.26002074 6.2824251 18.56420898 5.16113281 C-4.06885939 3.42012755 -20.00897116 10.05235006 -36.02709961 25.78759766 Z " fill="#FBFBFB" transform="translate(287.435791015625,77.8388671875)"/>
<path d="M0 0 C0.80308594 0.01417969 1.60617187 0.02835938 2.43359375 0.04296875 C3.64208984 0.05263672 3.64208984 0.05263672 4.875 0.0625 C6.87109375 0.23046875 6.87109375 0.23046875 7.87109375 1.23046875 C8.07948611 2.6834266 8.23862956 4.14363185 8.37109375 5.60546875 C8.62630537 8.40368189 8.97379545 10.53857386 9.87109375 13.23046875 C8.88109375 13.23046875 7.89109375 13.23046875 6.87109375 13.23046875 C7.31582031 13.67777344 7.76054687 14.12507812 8.21875 14.5859375 C12.87109375 19.55620907 12.87109375 19.55620907 12.87109375 23.04296875 C11.87109375 25.23046875 11.87109375 25.23046875 9.87109375 27.23046875 C5.49163818 26.94485208 3.27748555 25.8420358 -0.12890625 23.23046875 C-1.44890625 23.23046875 -2.76890625 23.23046875 -4.12890625 23.23046875 C-3.14844745 25.81531467 -2.18968482 27.17889906 -0.06640625 28.98046875 C3.97522965 30.70031382 7.57851537 31.49573146 11.87109375 30.23046875 C14.13719823 27.82829333 15.53620591 25.23564339 16.87109375 22.23046875 C17.41636719 22.43542969 17.96164062 22.64039063 18.5234375 22.8515625 C24.0254214 24.81722854 29.04757565 25.76828477 34.87109375 26.23046875 C35.9537891 40.42580777 31.84765187 54.16258746 24.05859375 65.98046875 C16.03459358 74.23372607 6.7897484 79.26520998 -4.72924805 79.52246094 C-13.03727571 79.58994709 -19.70212695 79.33949057 -27.12890625 75.23046875 C-28.66987048 74.47902656 -30.21150139 73.72894945 -31.75390625 72.98046875 C-32.86765625 72.40296875 -33.98140625 71.82546875 -35.12890625 71.23046875 C-26.79682139 79.26784965 -18.28660749 82.1782428 -6.87890625 82.79296875 C-5.76128906 82.85774414 -5.76128906 82.85774414 -4.62109375 82.92382812 C-2.79055725 83.029436 -0.95975449 83.13041076 0.87109375 83.23046875 C2.79498245 88.52945529 3.79146189 93.86294947 4.7265625 99.39648438 C5.25677453 102.39816859 5.81780456 105.10678741 7.02734375 107.9140625 C8.11407507 110.89754246 7.91461936 112.23659835 6.87109375 115.23046875 C-1.4196574 128.17933585 -12.91255947 139.04118135 -25.12890625 148.23046875 C-39.01913106 142.89807907 -39.01913106 142.89807907 -43.12890625 137.23046875 C-45.45523147 130.98185101 -45.53738143 124.10737936 -45.91943359 117.51269531 C-46.27904473 111.87794922 -46.92487124 106.27652768 -47.56640625 100.66796875 C-47.75154785 99.01704224 -47.75154785 99.01704224 -47.94042969 97.33276367 C-49.71945017 82.2373861 -53.03704481 71.03633273 -64.0859375 60.33984375 C-68.59069594 55.68865913 -72.22715642 50.47564332 -74.76953125 44.515625 C-77.34831161 37.55096923 -77.34831161 37.55096923 -82.79296875 33.1171875 C-85.34273752 32.87657552 -87.59692853 32.87385217 -90.12890625 33.23046875 C-89.98738797 31.14683785 -89.84052689 29.06356937 -89.69140625 26.98046875 C-89.61019531 25.8203125 -89.52898437 24.66015625 -89.4453125 23.46484375 C-89.19642838 20.92069499 -88.84775683 18.67093627 -88.12890625 16.23046875 C-85.48364822 17.18570082 -83.3176754 18.08746182 -81.06640625 19.79296875 C-79.05202896 21.28750674 -77.57396636 21.79385087 -75.12890625 22.23046875 C-76.33345795 19.25924122 -77.36943789 17.57519198 -80.33203125 16.23046875 C-82.57671054 15.4963598 -84.8519791 14.85744869 -87.12890625 14.23046875 C-87.12890625 10.60046875 -87.12890625 6.97046875 -87.12890625 3.23046875 C-79.51164901 2.26319799 -79.51164901 2.26319799 -75.6328125 4.9765625 C-74.07845675 6.40840745 -72.55657281 7.8765495 -71.07421875 9.3828125 C-69.17096701 11.45202881 -69.17096701 11.45202881 -66.12890625 12.23046875 C-66.12890625 8.93046875 -66.12890625 5.63046875 -66.12890625 2.23046875 C-64.47890625 1.90046875 -62.82890625 1.57046875 -61.12890625 1.23046875 C-60.46890625 2.22046875 -59.80890625 3.21046875 -59.12890625 4.23046875 C-57.95328125 4.66359375 -57.95328125 4.66359375 -56.75390625 5.10546875 C-52.11328688 7.09430562 -50.32213553 10.72993856 -48.37890625 15.16796875 C-45.52026109 21.09825616 -40.7266015 24.17214846 -34.75390625 26.60546875 C-27.55770617 27.8461929 -21.38432304 28.21702522 -14.8828125 24.5 C-7.82060162 19.38815471 -6.06772099 12.63394583 -4.69140625 4.4375 C-3.93821324 1.48226354 -3.09807144 0.33538755 0 0 Z " fill="#FCFCFC" transform="translate(345.12890625,184.76953125)"/>
<path d="M0 0 C2.23828125 -0.2890625 2.23828125 -0.2890625 5 0 C7.10546875 1.9765625 7.10546875 1.9765625 9.1875 4.625 C17.32070581 14.14515978 27.30866708 18.40382586 39.625 19.6875 C41.08256917 19.80186312 42.54072636 19.90995971 44 20 C44 19.34 44 18.68 44 18 C43.32195312 17.97421875 42.64390625 17.9484375 41.9453125 17.921875 C33.89074245 17.43101478 26.87633182 15.88471206 20.3125 11 C19 9 19 9 19.25 6.75 C19.4975 6.1725 19.745 5.595 20 5 C24.7590411 5.47590411 29.28143851 6.27844298 33.9375 7.375 C39.6619378 8.65806364 45.31805881 9.41047051 51.15087891 10.02734375 C68.71902692 11.88568893 84.63081878 14.73164842 96.5769043 28.86572266 C98.14934187 31.22397437 98.5575653 32.79731977 98.95703125 35.5859375 C99.09689453 36.50093018 99.23675781 37.41592285 99.38085938 38.35864258 C99.52330078 39.35404053 99.66574219 40.34943848 99.8125 41.375 C101.2807021 50.9175825 103.04509538 60.3581926 105 69.8125 C106.01672524 74.87178884 107.01340436 79.9347559 108 85 C108.2175293 86.10118164 108.43505859 87.20236328 108.65917969 88.33691406 C114.61176482 119.36795801 117.84658845 159.94223601 100.71484375 188.11328125 C98.03308242 191.72632947 95.3565205 193.14578029 91 194 C82.56900784 194.8721716 73.72122151 192.54025177 67 187.25 C58.15210827 178.59538746 56.89456974 165.78303502 56.64306641 154.02661133 C56.53858977 135.07822076 60.4233601 119.22022699 66.29199219 101.37939453 C70.541372 88.45997976 74.26980874 76.35504449 74.4375 62.625 C74.44797363 61.80870117 74.45844727 60.99240234 74.46923828 60.15136719 C74.49572762 56.01514024 74.49572762 56.01514024 72.8203125 52.36010742 C70.44335264 50.58408229 68.32520065 50.07895056 65.44140625 49.38671875 C64.33216797 49.10763672 63.22292969 48.82855469 62.08007812 48.54101562 C59.77091094 47.98071243 57.46103399 47.4233247 55.15039062 46.86914062 C44.34568155 44.14155737 32.82652693 40.38910012 26 31 C24.5625 27.5625 24.5625 27.5625 24 25 C28.7834421 25.60947332 32.43740423 27.6437406 36.625 29.875 C42.92651431 33.14459896 49.00401841 35.57708849 56 37 C53.5895932 34.12331779 51.69395375 33.49655437 48.0625 32.75 C41.30262127 31.07810486 35.83107593 27.71438519 30 24 C31.32 23.67 32.64 23.34 34 23 C32.83984375 22.49210937 31.6796875 21.98421875 30.484375 21.4609375 C26.419685 19.6748449 22.36549892 17.86630038 18.31738281 16.04296875 C16.89134624 15.40116215 15.46390771 14.76244694 14.03417969 14.12890625 C2.69985013 9.07466279 2.69985013 9.07466279 0 3 C0 2.01 0 1.02 0 0 Z " fill="#FCFCFC" transform="translate(103,315)"/>
<path d="M0 0 C10.19915292 2.38497302 22.41927682 5.78863293 28.3671875 15.15234375 C32.66208152 23.19573994 35.6122272 31.81659199 35 41 C28.25 40.125 28.25 40.125 26 39 C24.18958207 38.90367103 22.37547247 38.87018467 20.5625 38.875 C19.59441406 38.87242187 18.62632812 38.86984375 17.62890625 38.8671875 C14.88982171 38.88786027 14.88982171 38.88786027 12 40 C12 40.66 12 41.32 12 42 C13.98 42 15.96 42 18 42 C11.4591241 46.36058393 2.89763983 49.24473671 -5 48 C-9.03772325 47.12549311 -13.022039 46.11382908 -17 45 C-17 43.02 -17 41.04 -17 39 C-24.38114092 38.6115189 -28.76089627 39.84059751 -35 44 C-36.94380679 44.55379111 -38.90502592 45.04803587 -40.875 45.5 C-43.88521308 46.19408422 -46.69430856 46.87360385 -49.55078125 48.0546875 C-52.20457961 49.07896055 -54.48399613 49.39871969 -57.3125 49.625 C-58.19550781 49.69976562 -59.07851563 49.77453125 -59.98828125 49.8515625 C-60.65214844 49.90054688 -61.31601562 49.94953125 -62 50 C-61.44076596 45.79818748 -60.08438234 43.18309698 -57.625 39.75 C-57.01914062 38.87859375 -56.41328125 38.0071875 -55.7890625 37.109375 C-48.50622143 28.35928402 -39.25932917 23.23055854 -28.9375 18.875 C-17.82330852 14.12379642 -8.27956866 8.93321882 0 0 Z " fill="#FAFAFA" transform="translate(344,130)"/>
<path d="M0 0 C5.66269012 1.81633457 9.08088565 6.21507848 12.3125 11.0625 C12.869375 9.6084375 12.869375 9.6084375 13.4375 8.125 C15.3125 5.0625 15.3125 5.0625 18.0703125 4.26171875 C21.62960612 4.04301517 23.7295699 4.59571599 27.0625 5.8125 C38.42011819 9.57235299 50.41531418 11.10304953 62.3125 12.0625 C61.9825 13.0525 61.6525 14.0425 61.3125 15.0625 C48.81255151 14.45274641 36.45765238 13.77366572 24.53125 9.6484375 C22.04914105 8.99295098 19.86873066 8.96349107 17.3125 9.0625 C17.36018403 10.94130872 17.36018403 10.94130872 18.3125 13.0625 C24.25659223 17.7624799 29.98039837 19.20149153 37.359375 19.81640625 C39.3125 20.0625 39.3125 20.0625 41.3125 21.0625 C41.3125 21.7225 41.3125 22.3825 41.3125 23.0625 C30.63441356 23.91296706 21.15109676 21.02998684 12.40625 14.8515625 C9.2934567 12.19175032 6.7558564 9.13447387 4.234375 5.91796875 C1.95508351 3.71743327 0.41780803 3.38909274 -2.6875 3.0625 C-2.213125 3.990625 -1.73875 4.91875 -1.25 5.875 C0.3125 9.0625 0.3125 9.0625 1.3125 12.0625 C1.99183594 12.15015625 2.67117187 12.2378125 3.37109375 12.328125 C7.05315514 13.24741788 10.0980194 14.96331955 13.375 16.8125 C19.86538784 20.38498424 26.39685237 23.3838134 33.3125 26.0625 C31.9925 26.3925 30.6725 26.7225 29.3125 27.0625 C36.28964952 31.47781966 42.16875845 34.64057687 50.3125 36.0625 C51.3025 36.7225 52.2925 37.3825 53.3125 38.0625 C53.3125 38.7225 53.3125 39.3825 53.3125 40.0625 C41.52422984 38.51141182 31.7132347 33.49514182 21.3125 28.0625 C26.986362 38.18005038 34.41280085 43.59395754 45.49780273 47.05786133 C50.05184779 48.26323608 54.62557791 49.37101087 59.20703125 50.46679688 C60.32207031 50.74716797 61.43710938 51.02753906 62.5859375 51.31640625 C63.59060059 51.55689697 64.59526367 51.7973877 65.63037109 52.04516602 C68.74129996 53.22514422 70.26144563 54.45681616 72.3125 57.0625 C72.75369536 60.056543 72.93071438 62.57209144 72.875 65.5625 C72.85856445 66.82175293 72.85856445 66.82175293 72.84179688 68.10644531 C72.37047378 82.19900594 67.66501592 95.44082697 63.1875 108.6875 C62.85105469 109.69006836 62.51460938 110.69263672 62.16796875 111.72558594 C61.84183594 112.6540332 61.51570313 113.58248047 61.1796875 114.5390625 C60.89206543 115.36486816 60.60444336 116.19067383 60.30810547 117.04150391 C59.3125 119.0625 59.3125 119.0625 56.3125 121.0625 C55.12017387 123.11253955 55.12017387 123.11253955 54.3125 125.0625 C54.168125 124.155 54.02375 123.2475 53.875 122.3125 C53.43108186 119.27521175 53.43108186 119.27521175 52.72265625 117.2734375 C52.14769011 114.17409623 52.67658352 111.53799316 53.1875 108.4375 C53.37054688 107.29023438 53.55359375 106.14296875 53.7421875 104.9609375 C54.3125 102.0625 54.3125 102.0625 55.3125 100.0625 C54.3225 99.7325 53.3325 99.4025 52.3125 99.0625 C48.57688149 91.59126298 51.8963312 79.62063533 53.1875 71.75 C53.36152344 70.62271484 53.53554687 69.49542969 53.71484375 68.33398438 C54.59650754 62.77950252 55.59597676 57.42083607 57.3125 52.0625 C56.178125 52.000625 55.04375 51.93875 53.875 51.875 C34.02921244 49.62830707 15.1238825 41.16918353 1.94140625 26.17578125 C-0.69982835 22.74914356 -1.9564464 20.41379632 -1.625 16.0625 C-1.50711212 12.30395695 -2.33122694 11.00784133 -4.6875 8.0625 C-5 4.9375 -5 4.9375 -4.6875 2.0625 C-2.6875 0.0625 -2.6875 0.0625 0 0 Z " fill="#070707" transform="translate(105.6875,311.9375)"/>
<path d="M0 0 C2.1875 0.5 2.1875 0.5 4.1875 2.5 C4.33984375 4.3828125 4.33984375 4.3828125 4.125 6.625 C4.07214844 7.34945313 4.01929688 8.07390625 3.96484375 8.8203125 C2.80149858 12.83063807 0.50245813 16.05500131 -1.8125 19.5 C13.81890689 19.02582552 26.37685794 17.24389642 40.49072266 10.19311523 C45.90203452 7.5 45.90203452 7.5 49.1875 7.5 C48.68048957 11.93634129 47.02164213 14.12737086 44.1875 17.5 C44.71706299 17.25241943 45.24662598 17.00483887 45.79223633 16.74975586 C48.19025689 15.63551612 50.59491059 14.53639288 53 13.4375 C53.83337891 13.04755859 54.66675781 12.65761719 55.52539062 12.25585938 C56.32783203 11.89169922 57.13027344 11.52753906 57.95703125 11.15234375 C58.69542236 10.81195068 59.43381348 10.47155762 60.19458008 10.12084961 C62.1875 9.5 62.1875 9.5 65.1875 10.5 C64.71340352 14.81730413 62.15353297 16.83647461 59.125 19.75 C58.20589844 20.64203125 57.28679687 21.5340625 56.33984375 22.453125 C55.27443359 23.46632813 55.27443359 23.46632813 54.1875 24.5 C55.11820313 24.17257812 56.04890625 23.84515625 57.0078125 23.5078125 C59.97990294 22.56579858 62.10733656 22.31881392 65.1875 22.5 C65.24401682 25.32584106 65.2224242 26.92821336 64.1875 29.5 C54.09646782 39.24701972 38.73065461 41.31645148 25.45703125 43.17578125 C10.690149 45.26169939 -3.6213619 48.11766293 -13.1875 60.5625 C-23.12247756 75.84535963 -29.00622662 93.107028 -35.05395508 110.17236328 C-55.80835134 168.73482427 -55.80835134 168.73482427 -69.8125 181.5 C-71.1325 181.5 -72.4525 181.5 -73.8125 181.5 C-73.20662543 177.23761925 -70.69260005 174.06516245 -68.375 170.5625 C-57.77353615 153.88293966 -51.10551671 136.12458437 -44.70874023 117.53344727 C-23.05050469 54.67175863 -23.05050469 54.67175863 -2.8125 43.9375 C7.91421034 38.93274125 19.5432141 37.58397118 31.16015625 36.12695312 C38.60968785 35.11418973 45.24084906 33.38595066 52.1875 30.5 C51.115 30.665 50.0425 30.83 48.9375 31 C43.36491358 31.71160726 37.79486426 31.58411046 32.1875 31.5 C34.29390087 30.40779214 36.34601154 29.44224171 38.578125 28.62890625 C41.71713707 27.27086061 44.19644081 25.47847786 46.9375 23.4375 C48.38382813 22.36822266 48.38382813 22.36822266 49.859375 21.27734375 C52.02966038 19.70216185 52.02966038 19.70216185 53.1875 18.5 C51.90166016 19.02400391 51.90166016 19.02400391 50.58984375 19.55859375 C41.48440176 23.18229276 33.93059294 24.69883863 24.1875 24.5 C26.1875 22.5 26.1875 22.5 29.25 22.25 C34.31238333 21.66506075 38.40507151 18.78940319 42.1875 15.5 C42.88784633 14.18404512 43.55976991 12.85210101 44.1875 11.5 C43.41055786 11.89324463 43.41055786 11.89324463 42.61791992 12.29443359 C23.25667287 22.01050941 23.25667287 22.01050941 14.1875 22.5 C13.13175781 22.56703125 12.07601562 22.6340625 10.98828125 22.703125 C4.00926661 22.93008483 -2.36839651 22.34952243 -8.8125 19.5 C-9.4725 18.84 -10.1325 18.18 -10.8125 17.5 C-8.5025 17.83 -6.1925 18.16 -3.8125 18.5 C-0.02526361 11.35330646 -0.02526361 11.35330646 1.1875 3.5 C-3.2936262 3.77158341 -5.25878704 5.74441747 -8.453125 8.69140625 C-12.11970575 11.50204679 -16.2318007 13.44944419 -20.39404297 15.43188477 C-25.0734501 17.76073683 -27.86192226 20.14119198 -30.8125 24.5 C-31.36119061 26.89270146 -31.36119061 26.89270146 -31.1875 29.25 C-31.51340312 34.51100748 -33.25698155 37.1780997 -36.42578125 41.296875 C-39.75503978 45.764947 -42.73314136 50.44239622 -45.75 55.125 C-46.90489214 56.90889028 -48.05983594 58.69274711 -49.21484375 60.4765625 C-50.08097394 61.81755027 -50.94695712 63.15863308 -51.8125 64.5 C-52.4725 64.17 -53.1325 63.84 -53.8125 63.5 C-52.38747003 59.46050158 -50.43514641 56.32694261 -47.93359375 52.859375 C-46.79954102 51.25255859 -46.79954102 51.25255859 -45.64257812 49.61328125 C-44.45004964 47.93135337 -43.25274686 46.25378268 -42.04125977 44.58544922 C-37.10578401 37.76628872 -33.98226632 32.98831584 -33.8125 24.5 C-30.01515924 17.18660297 -24.1606636 13.41954058 -16.875 10.0625 C-12.76527673 8.12291699 -9.09744008 6.1887436 -5.75 3.0625 C-2.8125 0.5 -2.8125 0.5 0 0 Z " fill="#0C0C0C" transform="translate(490.8125,333.5)"/>
<path d="M0 0 C5.66269012 1.81633457 9.08088565 6.21507848 12.3125 11.0625 C12.869375 9.6084375 12.869375 9.6084375 13.4375 8.125 C15.3125 5.0625 15.3125 5.0625 18.0703125 4.26171875 C21.62960612 4.04301517 23.7295699 4.59571599 27.0625 5.8125 C38.42011819 9.57235299 50.41531418 11.10304953 62.3125 12.0625 C61.9825 13.0525 61.6525 14.0425 61.3125 15.0625 C48.81255151 14.45274641 36.45765238 13.77366572 24.53125 9.6484375 C22.04914105 8.99295098 19.86873066 8.96349107 17.3125 9.0625 C17.36018403 10.94130872 17.36018403 10.94130872 18.3125 13.0625 C24.25659223 17.7624799 29.98039837 19.20149153 37.359375 19.81640625 C39.3125 20.0625 39.3125 20.0625 41.3125 21.0625 C41.3125 21.7225 41.3125 22.3825 41.3125 23.0625 C30.63441356 23.91296706 21.15109676 21.02998684 12.40625 14.8515625 C9.2934567 12.19175032 6.7558564 9.13447387 4.234375 5.91796875 C1.95508351 3.71743327 0.41780803 3.38909274 -2.6875 3.0625 C-2.213125 3.990625 -1.73875 4.91875 -1.25 5.875 C0.3125 9.0625 0.3125 9.0625 1.3125 12.0625 C1.99183594 12.15015625 2.67117187 12.2378125 3.37109375 12.328125 C7.05315514 13.24741788 10.0980194 14.96331955 13.375 16.8125 C19.86538784 20.38498424 26.39685237 23.3838134 33.3125 26.0625 C30.0013987 27.16620043 28.06501051 26.98923641 24.625 26.625 C23.63113281 26.52316406 22.63726562 26.42132813 21.61328125 26.31640625 C20.85402344 26.23261719 20.09476563 26.14882813 19.3125 26.0625 C18.9825 27.0525 18.6525 28.0425 18.3125 29.0625 C19.29019614 31.1096641 19.29019614 31.1096641 20.75 33.125 C23.3125 36.8744891 23.3125 36.8744891 23.3125 39.0625 C13.68118107 36.83988794 6.46905042 29.14728543 1.3125 21.0625 C0.27050608 18.69528562 -0.58882144 16.52769894 -1.125 14 C-1.58565331 11.93016128 -1.58565331 11.93016128 -3.25 10.1875 C-5.17714904 7.33867099 -5.05376042 5.43209589 -4.6875 2.0625 C-2.6875 0.0625 -2.6875 0.0625 0 0 Z " fill="#161616" transform="translate(105.6875,311.9375)"/>
<path d="M0 0 C2.1875 0.5 2.1875 0.5 4.1875 2.5 C4.33984375 4.3828125 4.33984375 4.3828125 4.125 6.625 C4.07214844 7.34945313 4.01929688 8.07390625 3.96484375 8.8203125 C2.80149858 12.83063807 0.50245813 16.05500131 -1.8125 19.5 C1.16686216 19.3575483 4.1459442 19.21112006 7.125 19.0625 C8.37120117 19.00352539 8.37120117 19.00352539 9.64257812 18.94335938 C15.19115014 18.66269231 20.67121637 18.16239935 26.1875 17.5 C25.6925 18.985 25.6925 18.985 25.1875 20.5 C13.83531493 23.04798543 2.12153429 24.33492794 -8.8125 19.5 C-9.4725 18.84 -10.1325 18.18 -10.8125 17.5 C-8.5025 17.83 -6.1925 18.16 -3.8125 18.5 C-0.02526361 11.35330646 -0.02526361 11.35330646 1.1875 3.5 C-3.2936262 3.77158341 -5.25878704 5.74441747 -8.453125 8.69140625 C-12.11970575 11.50204679 -16.2318007 13.44944419 -20.39404297 15.43188477 C-25.0734501 17.76073683 -27.86192226 20.14119198 -30.8125 24.5 C-31.36119061 26.89270146 -31.36119061 26.89270146 -31.1875 29.25 C-31.51340312 34.51100748 -33.25698155 37.1780997 -36.42578125 41.296875 C-39.75503978 45.764947 -42.73314136 50.44239622 -45.75 55.125 C-46.90489214 56.90889028 -48.05983594 58.69274711 -49.21484375 60.4765625 C-50.08097394 61.81755027 -50.94695712 63.15863308 -51.8125 64.5 C-52.4725 64.17 -53.1325 63.84 -53.8125 63.5 C-52.38747003 59.46050158 -50.43514641 56.32694261 -47.93359375 52.859375 C-46.79954102 51.25255859 -46.79954102 51.25255859 -45.64257812 49.61328125 C-44.45004964 47.93135337 -43.25274686 46.25378268 -42.04125977 44.58544922 C-37.10578401 37.76628872 -33.98226632 32.98831584 -33.8125 24.5 C-30.01515924 17.18660297 -24.1606636 13.41954058 -16.875 10.0625 C-12.76527673 8.12291699 -9.09744008 6.1887436 -5.75 3.0625 C-2.8125 0.5 -2.8125 0.5 0 0 Z " fill="#0D0D0D" transform="translate(490.8125,333.5)"/>
<path d="M0 0 C-2.10934463 5.70364701 -5.26443979 10.70221146 -8.39477539 15.89355469 C-9.43654357 17.62341185 -10.46955837 19.35828632 -11.50195312 21.09375 C-12.16001953 22.18945312 -12.81808594 23.28515625 -13.49609375 24.4140625 C-14.09607178 25.4138916 -14.6960498 26.4137207 -15.31420898 27.44384766 C-17 30 -17 30 -20 33 C-19.34 23.76 -18.68 14.52 -18 5 C-5.5 0 -5.5 0 0 0 Z " fill="#F4F4F4" transform="translate(427,411)"/>
<path d="M0 0 C4.13268183 0.47968628 7.33704485 2.0265961 11 3.9375 C14.61789786 5.81566892 18.18866537 7.54973113 22 9 C21.360625 9.268125 20.72125 9.53625 20.0625 9.8125 C17.66868314 10.88667752 17.66868314 10.88667752 17 14 C17.97769614 16.0471641 17.97769614 16.0471641 19.4375 18.0625 C22 21.8119891 22 21.8119891 22 24 C12.99578285 21.92210373 6.80256683 15.25143987 1.3125 8.2109375 C-0.13646942 5.77011401 -0.6928042 3.81276154 -1 1 C-0.67 0.67 -0.34 0.34 0 0 Z " fill="#F1F1F1" transform="translate(107,327)"/>
<path d="M0 0 C3.37881434 1.39813007 5.15017878 2.82887791 7 6 C7.6875 9.25 7.6875 9.25 8 12 C8.58007812 11.86722656 9.16015625 11.73445312 9.7578125 11.59765625 C14.15770982 10.60295999 18.53894158 9.68631668 23 9 C23.66 10.32 24.32 11.64 25 13 C23.625 15 23.625 15 21 17 C16.97911941 17.49936743 12.68362274 17.84181137 9 16 C8.38125 17.7015625 8.38125 17.7015625 7.75 19.4375 C6 23 6 23 3.9375 24.0625 C2 24 2 24 0 22 C0.35355436 19.73725212 0.97544426 18.04911148 2 16 C2.07116382 13.62597499 2.08409085 11.24999323 2.0625 8.875 C2.05347656 7.59367188 2.04445313 6.31234375 2.03515625 4.9921875 C2.02355469 4.00476563 2.01195312 3.01734375 2 2 C1.34 2 0.68 2 0 2 C0 1.34 0 0.68 0 0 Z " fill="#121212" transform="translate(335,219)"/>
<path d="M0 0 C0.99 0.33 1.98 0.66 3 1 C1.35 3.64 -0.3 6.28 -2 9 C0.97936216 8.8575483 3.9584442 8.71112006 6.9375 8.5625 C7.76830078 8.52318359 8.59910156 8.48386719 9.45507812 8.44335938 C15.00365014 8.16269231 20.48371637 7.66239935 26 7 C25.67 7.99 25.34 8.98 25 10 C13.64781493 12.54798543 1.93403429 13.83492794 -9 9 C-9.66 8.34 -10.32 7.68 -11 7 C-8.69 7.33 -6.38 7.66 -4 8 C-3.71125 7.4225 -3.4225 6.845 -3.125 6.25 C-1.5625 3.125 -1.5625 3.125 0 0 Z " fill="#242424" transform="translate(491,344)"/>
<path d="M0 0 C2.23828125 -0.2890625 2.23828125 -0.2890625 5 0 C7.10546875 1.9765625 7.10546875 1.9765625 9.1875 4.625 C14.5613213 10.96934421 20.65077667 14.36743194 28 18 C25.64867815 18.82609578 24.41818274 19.14813126 22.03295898 18.30322266 C21.36079346 17.9272998 20.68862793 17.55137695 19.99609375 17.1640625 C19.25552734 16.75929688 18.51496094 16.35453125 17.75195312 15.9375 C16.98818359 15.504375 16.22441406 15.07125 15.4375 14.625 C13.91636191 13.78205194 12.39426387 12.94083322 10.87109375 12.1015625 C10.20005615 11.72338379 9.52901855 11.34520508 8.83764648 10.95556641 C6.8598871 9.86601186 6.8598871 9.86601186 4 9 C0 3.74285714 0 3.74285714 0 0 Z " fill="#E8E8E8" transform="translate(103,315)"/>
<path d="M0 0 C0.99 0.33 1.98 0.66 3 1 C2.60731934 1.61407715 2.21463867 2.2281543 1.81005859 2.86083984 C-0.00305116 5.69798631 -1.81403438 8.53648448 -3.625 11.375 C-4.24246094 12.34050781 -4.85992187 13.30601562 -5.49609375 14.30078125 C-6.41455078 15.74130859 -6.41455078 15.74130859 -7.3515625 17.2109375 C-8.26856934 18.64711426 -8.26856934 18.64711426 -9.20410156 20.11230469 C-11.467592 23.75185946 -13.57885076 27.47129414 -15.65380859 31.22119141 C-16.09805176 31.80819824 -16.54229492 32.39520508 -17 33 C-17.99 33 -18.98 33 -20 33 C-18.99539107 29.98617322 -17.90119617 28.49472532 -16 26 C-14.79932069 24.07150576 -13.62171233 22.12855431 -12.4609375 20.17578125 C-11.79835938 19.06525391 -11.13578125 17.95472656 -10.453125 16.81054688 C-9.76022964 15.64464238 -9.06752349 14.47862542 -8.375 13.3125 C-7.00958421 11.01586053 -5.64200962 8.72054524 -4.2734375 6.42578125 C-3.66935059 5.40911377 -3.06526367 4.39244629 -2.44287109 3.3449707 C-1 1 -1 1 0 0 Z " fill="#222222" transform="translate(426,413)"/>
<path d="M0 0 C0.99 0.33 1.98 0.66 3 1 C2.32517578 2.00353516 2.32517578 2.00353516 1.63671875 3.02734375 C-4.34238462 11.95406121 -10.17936022 20.96944858 -16 30 C-16.66 29.67 -17.32 29.34 -18 29 C-16.57091424 25.02079009 -14.66433497 21.76373523 -12.3046875 18.26171875 C-11.58925781 17.19501953 -10.87382812 16.12832031 -10.13671875 15.02929688 C-9.38291335 13.91529633 -8.62900583 12.80136489 -7.875 11.6875 C-7.11285478 10.55432318 -6.35113164 9.42086235 -5.58984375 8.28710938 C-3.73069414 5.5219185 -1.86729186 2.75969621 0 0 Z " fill="#161616" transform="translate(455,368)"/>
<path d="M0 0 C1.65 0 3.3 0 5 0 C6.31363934 2.62727868 5.74001027 3.45416028 4.85546875 6.2109375 C4.59056641 7.04367187 4.32566406 7.87640625 4.05273438 8.734375 C3.62444336 10.04148437 3.62444336 10.04148437 3.1875 11.375 C2.91357422 12.23867188 2.63964844 13.10234375 2.35742188 13.9921875 C1.12493158 17.82266095 -0.12478066 21.42993909 -2 25 C-2.10481309 19.23528001 -1.73291127 13.7147271 -1 8 C-0.90460938 7.22527344 -0.80921875 6.45054687 -0.7109375 5.65234375 C-0.47826451 3.76769254 -0.23975175 1.88376378 0 0 Z " fill="#E5E5E5" transform="translate(162,412)"/>
<path d="M0 0 C-0.33 1.65 -0.66 3.3 -1 5 C-3 5 -5 5 -7 5 C-9.60269996 6.11503649 -12.14141543 7.2685604 -14.6875 8.5 C-15.38939453 8.83386719 -16.09128906 9.16773438 -16.81445312 9.51171875 C-18.54543137 10.33599411 -20.2730471 11.16732406 -22 12 C-22.33 11.01 -22.66 10.02 -23 9 C-22.47792969 8.76925781 -21.95585938 8.53851563 -21.41796875 8.30078125 C-20.31388672 7.81158203 -20.31388672 7.81158203 -19.1875 7.3125 C-18.37410156 6.95285156 -17.56070313 6.59320313 -16.72265625 6.22265625 C-14.82734006 5.37153148 -12.9397921 4.50298355 -11.05859375 3.62109375 C-10.09050781 3.16863281 -9.12242187 2.71617187 -8.125 2.25 C-7.22007812 1.82203125 -6.31515625 1.3940625 -5.3828125 0.953125 C-3 0 -3 0 0 0 Z " fill="#151515" transform="translate(540,341)"/>
<path d="M0 0 C5.3223297 1.63631496 10.30981576 3.83880041 15.375 6.125 C16.20644531 6.49753906 17.03789062 6.87007813 17.89453125 7.25390625 C19.93084255 8.16673546 21.96594539 9.08215598 24 10 C20.30581799 11.231394 17.7943739 10.64432764 14 10 C14 9.34 14 8.68 14 8 C13.32453125 7.80664062 12.6490625 7.61328125 11.953125 7.4140625 C10.61507812 7.02347656 10.61507812 7.02347656 9.25 6.625 C8.36828125 6.36976563 7.4865625 6.11453125 6.578125 5.8515625 C4.23919428 5.0790066 2.16557438 4.16374324 0 3 C0 2.01 0 1.02 0 0 Z " fill="#191919" transform="translate(115,328)"/>
<path d="M0 0 C1.2578125 2.078125 1.2578125 2.078125 2 4 C-3.75 2.125 -3.75 2.125 -6 1 C-7.93550864 0.90279573 -9.87455792 0.87022086 -11.8125 0.875 C-12.85019531 0.87242187 -13.88789063 0.86984375 -14.95703125 0.8671875 C-17.75342942 0.98923825 -20.27939879 1.36636645 -23 2 C-17.5738253 -3.94295325 -7.03360208 -3.09361751 0 0 Z " fill="#353535" transform="translate(190,343)"/>
<path d="M0 0 C2.39561849 1.54526536 3.96711681 3.26367773 5.796875 5.4453125 C6.41046875 6.16976563 7.0240625 6.89421875 7.65625 7.640625 C8.34460938 8.47207031 8.34460938 8.47207031 9.046875 9.3203125 C9.706875 8.3303125 10.366875 7.3403125 11.046875 6.3203125 C11.046875 7.9703125 11.046875 9.6203125 11.046875 11.3203125 C10.056875 11.6503125 9.066875 11.9803125 8.046875 12.3203125 C7.14195313 11.27230469 7.14195313 11.27230469 6.21875 10.203125 C5.41953125 9.29304688 4.6203125 8.38296875 3.796875 7.4453125 C3.00796875 6.54039062 2.2190625 5.63546875 1.40625 4.703125 C-0.70003903 2.57591257 -2.20964026 1.41518944 -4.953125 0.3203125 C-1.953125 -0.6796875 -1.953125 -0.6796875 0 0 Z " fill="#222222" transform="translate(108.953125,313.6796875)"/>
<path d="M0 0 C1.3809273 3.72673328 0.59902051 6.02657117 -0.75 9.6875 C-1.09546875 10.66074219 -1.4409375 11.63398438 -1.796875 12.63671875 C-3 15 -3 15 -6 16 C-3.81395349 5.53488372 -3.81395349 5.53488372 -2 1 C-1.34 0.67 -0.68 0.34 0 0 Z " fill="#0F0F0F" transform="translate(168,416)"/>
<path d="M0 0 C2 2 2 2 2.08203125 4.96875 C1.99308594 6.1340625 1.90414062 7.299375 1.8125 8.5 C1.73644531 9.6653125 1.66039062 10.830625 1.58203125 12.03125 C1.38996094 13.0109375 1.19789063 13.990625 1 15 C0.01 15.66 -0.98 16.32 -2 17 C-1.34 11.39 -0.68 5.78 0 0 Z " fill="#282828" transform="translate(160,414)"/>
<path d="M0 0 C1.45823212 -0.0270043 2.91660675 -0.04639787 4.375 -0.0625 C5.18710938 -0.07410156 5.99921875 -0.08570313 6.8359375 -0.09765625 C9 0 9 0 11 1 C11 1.66 11 2.32 11 3 C7.7 3 4.4 3 1 3 C0.67 2.01 0.34 1.02 0 0 Z " fill="#202020" transform="translate(136,332)"/>
<path d="M0 0 C0.66 0 1.32 0 2 0 C1.36934243 3.21852831 0.21979305 5.50801069 -1.5625 8.25 C-2.01753906 8.95640625 -2.47257812 9.6628125 -2.94140625 10.390625 C-3.29074219 10.92171875 -3.64007813 11.4528125 -4 12 C-4.66 11.67 -5.32 11.34 -6 11 C-4.54997977 6.89160936 -2.6020866 3.49655387 0 0 Z " fill="#1C1C1C" transform="translate(443,386)"/>
<path d="M0 0 C0.99 0.33 1.98 0.66 3 1 C-0.11016455 4.28788824 -3.01618925 6.83735988 -7 9 C-7 6 -7 6 -5.57421875 4.359375 C-4.95160156 3.82828125 -4.32898438 3.2971875 -3.6875 2.75 C-3.07261719 2.20859375 -2.45773437 1.6671875 -1.82421875 1.109375 C-1.22222656 0.74328125 -0.62023437 0.3771875 0 0 Z " fill="#1E1E1E" transform="translate(486,335)"/>
<path d="M0 0 C2.875 0.25 2.875 0.25 6 1 C7.375 3.0625 7.375 3.0625 8 5 C4.62537285 4.45276317 2.91765 3.9451 0 2 C0 1.34 0 0.68 0 0 Z " fill="#D7D7D7" transform="translate(325,180)"/>
<path d="M0 0 C4.37934119 0.51958285 8.68803391 1.05675742 13 2 C12.01 2.33 11.02 2.66 10 3 C9.67 3.66 9.34 4.32 9 5 C9 4.34 9 3.68 9 3 C6.03 2.67 3.06 2.34 0 2 C0 1.34 0 0.68 0 0 Z " fill="#232323" transform="translate(154,361)"/>
<path d="M0 0 C3.63 0 7.26 0 11 0 C10.67 0.99 10.34 1.98 10 3 C6.7 2.67 3.4 2.34 0 2 C0 1.34 0 0.68 0 0 Z " fill="#121212" transform="translate(157,324)"/>
<path d="M0 0 C0.99 0.33 1.98 0.66 3 1 C0.42215154 3.64752004 -1.91648098 5.94432065 -5 8 C-5 5 -5 5 -2.5 2.3125 C-1.675 1.549375 -0.85 0.78625 0 0 Z " fill="#151515" transform="translate(465,348)"/>
<path d="M0 0 C-0.33 0.99 -0.66 1.98 -1 3 C-2.98 3.33 -4.96 3.66 -7 4 C-7 3.34 -7 2.68 -7 2 C-7.66 1.67 -8.32 1.34 -9 1 C-5.94152152 0.45627049 -3.11227195 0 0 0 Z " fill="#2D2D2D" transform="translate(517,351)"/>
<path d="M0 0 C3.9492568 0.55105909 7.34920174 1.38935371 11 3 C7.30581799 4.231394 4.7943739 3.64432764 1 3 C0.67 2.01 0.34 1.02 0 0 Z " fill="#212121" transform="translate(128,335)"/>
<path d="M0 0 C0.66 0.33 1.32 0.66 2 1 C-1.87564767 4.61139896 -1.87564767 4.61139896 -4 6 C-6.375 5.8125 -6.375 5.8125 -8 5 C-2.6 1.4 -2.6 1.4 0 0 Z " fill="#D5D5D5" transform="translate(545,350)"/>
</svg>
